<?xml version="1.0" encoding="UTF-8"?>
<svg xmlns="http://www.w3.org/2000/svg" width="960" height="720" viewBox="0 0 960 720" role="img" aria-labelledby="title desc">
  <title id="title">Reforço Escolar Lúdico</title>
  <desc id="desc">Visual abstrato de interface para o projeto Reforço Escolar Lúdico.</desc>
  <rect width="960" height="720" rx="32" fill="#f8fbff"/>
  <path d="M112 144 C230 76 332 176 448 112 S662 86 820 164" fill="none" stroke="#c2410c" stroke-width="5" stroke-opacity="0.16"/>
  <circle cx="150" cy="142" r="12" fill="#84cc16"/>
  <circle cx="392" cy="122" r="10" fill="#2563eb"/>
  <circle cx="650" cy="128" r="13" fill="#c2410c"/>
  <g filter="drop-shadow(0 28px 38px rgba(15,23,42,.18))">
    <rect x="155" y="150" width="650" height="420" rx="24" fill="#ffffff"/>
    <rect x="155" y="150" width="650" height="74" rx="24" fill="#c2410c"/>
    <circle cx="204" cy="188" r="10" fill="#ffffff" opacity=".92"/>
    <circle cx="236" cy="188" r="10" fill="#ffffff" opacity=".62"/>
    <circle cx="268" cy="188" r="10" fill="#ffffff" opacity=".42"/>
    <text x="330" y="197" font-family="Arial, sans-serif" font-size="25" font-weight="800" fill="#ffffff">Reforço</text>
    <rect x="206" y="276" width="292" height="36" rx="8" fill="#c2410c" opacity=".12"/>
    <rect x="206" y="340" width="358" height="18" rx="6" fill="#111827" opacity=".16"/>
    <rect x="206" y="376" width="300" height="18" rx="6" fill="#111827" opacity=".10"/>
    <rect x="206" y="440" width="168" height="50" rx="8" fill="#c2410c"/>
    <text x="228" y="472" font-family="Arial, sans-serif" font-size="16" font-weight="800" fill="#ffffff">Começar reforço</text>
    <rect x="590" y="268" width="160" height="80" rx="12" fill="#c2410c" opacity=".10"/>
    <text x="612" y="300" font-family="Arial, sans-serif" font-size="15" font-weight="800" fill="#111827">Fases</text>
    <text x="612" y="326" font-family="Arial, sans-serif" font-size="24" font-weight="900" fill="#c2410c">12</text>
    <rect x="590" y="374" width="160" height="80" rx="12" fill="#2563eb" opacity=".12"/>
    <text x="612" y="406" font-family="Arial, sans-serif" font-size="15" font-weight="800" fill="#111827">Pontos</text>
    <text x="612" y="432" font-family="Arial, sans-serif" font-size="24" font-weight="900" fill="#2563eb">840</text>
    <rect x="590" y="480" width="160" height="80" rx="12" fill="#84cc16" opacity=".18"/>
    <text x="612" y="512" font-family="Arial, sans-serif" font-size="15" font-weight="800" fill="#111827">Conquistas</text>
    <text x="612" y="538" font-family="Arial, sans-serif" font-size="24" font-weight="900" fill="#92400e">5</text>
  </g>
</svg>
